# xmcd
#
# Track frame offsets: 
#        150
#        2436
#        26834
#        37615
#        52729
#        67909
#        95938
#        116471
#        135806
#        166280
#        187635
#        205828
#        235908
#        255515
#        272955
#        292200
#        313806
#
# Disc length: 4444 seconds
#
# Revision: 0
# Processed by: cddbd v1.5PL3 Copyright (c) Steve Scherf et al.
# Submitted via: ExactAudioCopy v0.95a4
#
DISCID=dd115a11
DTITLE=Willy DeVille - Live In Berlin
DYEAR=2002
DGENRE=Blues
TTITLE0=Loup Garou
TTITLE1=One Night Of Sin
TTITLE2=Broken Heart
TTITLE3=Runnin' Through The Jungle
TTITLE4=Bamboo Road
TTITLE5=Lay Me Down Easy
TTITLE6=Carmelita
TTITLE7=Strady Drivin' Man
TTITLE8=Across The Border Line
TTITLE9=18 Hammers
TTITLE10=Cadillac Walk
TTITLE11=Can't Do Without It
TTITLE12=Bad Boy
TTITLE13=Who's Gonna Shoe Your Pretty Little Feet
TTITLE14=Heart And Soul
TTITLE15=Over The Hill
TTITLE16=Just Your Friends
EXTD=
EXTT0=
EXTT1=
EXTT2=
EXTT3=
EXTT4=
EXTT5=
EXTT6=
EXTT7=
EXTT8=
EXTT9=
EXTT10=
EXTT11=
EXTT12=
EXTT13=
EXTT14=
EXTT15=
EXTT16=
PLAYORDER=
